Genre:Action | Adventure | Sci-Fi
Language:English
IMDb:http://www.imdb.com/title/tt0848228/
Source:1080p.BluRay.DTS.x264-PublicHD Thanks!
SUBTITLES:English
Encoder:Tony

Format : MPEG-4
Format profile : Base Media
Codec ID : isom
File size : 3.42 GiB
Duration : 2h 22mn
Overall bit rate mode : Variable
Overall bit rate : 3 425 Kbps

Video
ID : 1
Format : AVC
Format/Info : Advanced Video Codec
Format profile : High@L4.1
Format settings, CABAC : Yes
Format settings, ReFrames : 3 frames
Codec ID : avc1
Codec ID/Info : Advanced Video Coding
Duration : 2h 22mn
Bit rate : 3 000 Kbps
Maximum bit rate : 18.7 Mbps
Width : 1 280 pixels
Height : 720 pixels
Display aspect ratio : 16:9
Frame rate mode : Constant
Frame rate : 23.976 fps
Color space : YUV
Chroma subsampling : 4:2:0
Bit depth : 8 bits
Scan type : Progressive
Bits/(Pixel*Frame) : 0.136
Stream size : 2.97 GiB (87%)
Writing library : x264

Audio
ID : 2
Format : AAC
Format/Info : Advanced Audio Codec
Format profile : LC
Codec ID : 40
Duration : 2h 22mn
Bit rate mode : Variable
Bit rate : 447 Kbps
Maximum bit rate : 538 Kbps
Channel(s) : 6 channels
Channel positions : Front: L C R, Side: L R, LFE
Sampling rate : 48.0 KHz
Compression mode : Lossy
Stream size : 456 MiB (13%)


Plot:
Nick Fury of S.H.I.E.L.D. brings together a team of super humans to form The Avengers to help save the Earth from Loki and his army.


 
http://img515.imageshack.us/img515/6471/vlcsnap2012082318h42m06.png 
http://img171.imageshack.us/img171/6765/vlcsnap2012082318h40m40.png 
http://img256.imageshack.us/img256/2868/vlcsnap2012082318h41m00.png 
http://img88.imageshack.us/img88/143/vlcsnap2012082318h41m27.png 
http://img585.imageshack.us/img585/8292/vlcsnap2012082318h43m07.png
